# xmcd
#
# Track frame offsets:
#	150
#	5519
#	26424
#	50477
#	67936
#	96850
#	122383
#	134483
#	163693
#	171293
#	194400
#	223432
#	233740
#	263930
#	277152
#	302510
#	325441
#
# Disc length: 4700 seconds
# Revision: 0
# Processed by: cddbd v1.5.2PL0 Copyright (c) Steve Scherf et al.
# Submitted via: dBpowerAMP V12.0
#
DISCID=fa125a11
DTITLE=The Sunburst Band - Moving With The Shakers
DYEAR=2008
DGENRE=House
TTITLE0=Journey Intro
TTITLE1=Rough Times
TTITLE2=Our Lives Are Shaped
TTITLE3=Shabadowah
TTITLE4=Fashion
TTITLE5=Sitting On Top of the World
TTITLE6=Dusk
TTITLE7=Put a Lyric in It
TTITLE8=Monterey
TTITLE9=Days Gone By
TTITLE10=Journey to the Sun
TTITLE11=Free Bass
TTITLE12=Man of War
TTITLE13=Movin' With The Shakers
TTITLE14=Turn It Out
TTITLE15=Survivin'
TTITLE16=We Can Live Forever
EXTD=
EXTT0=
EXTT1=
EXTT2=
EXTT3=
EXTT4=
EXTT5=
EXTT6=
EXTT7=
EXTT8=
EXTT9=
EXTT10=
EXTT11=
EXTT12=
EXTT13=
EXTT14=
EXTT15=
EXTT16=
PLAYORDER=
